<?xml version="1.0" standalone="no"?>
<!DOCTYPE svg PUBLIC "-//W3C//DTD SVG 20010904//EN"
 "http://www.w3.org/TR/2001/REC-SVG-20010904/DTD/svg10.dtd">
<svg version="1.0" xmlns="http://www.w3.org/2000/svg"
 width="500.000000pt" height="500.000000pt" viewBox="0 0 500.000000 500.000000"
 preserveAspectRatio="xMidYMid meet">
<metadata>
Created by potrace 1.14, written by Peter Selinger 2001-2017
</metadata>
<g transform="translate(0.000000,500.000000) scale(0.100000,-0.100000)"
fill="#000000" stroke="none">
<path d="M2477 4164 c-1 -1 -44 -5 -96 -8 -190 -13 -400 -73 -571 -164 -237
-126 -422 -316 -528 -542 -63 -135 -87 -214 -117 -395 -10 -56 -13 -515 -4
-515 4 0 38 14 76 31 37 17 165 64 283 106 118 41 218 78 222 81 3 4 8 61 11
127 8 190 51 319 150 450 223 295 564 406 981 320 146 -30 323 -106 523 -225
55 -32 113 -61 129 -63 91 -13 144 75 99 163 -62 120 -178 261 -290 352 -173
141 -410 240 -636 267 -80 10 -227 19 -232 15z"/>
<path d="M2410 2812 c-79 -5 -290 -42 -392 -67 -122 -31 -485 -151 -515 -171
-12 -8 -27 -14 -32 -14 -10 0 -148 -66 -232 -112 -93 -50 -85 -27 -84 -258 2
-175 7 -269 20 -340 75 -402 347 -747 695 -883 70 -27 193 -63 250 -72 19 -3
46 -7 60 -10 128 -22 584 -22 621 1 4 2 22 6 40 8 311 42 616 247 788 529 22
37 38 67 35 67 -4 0 -2 6 3 13 6 6 13 28 17 47 13 75 -57 128 -135 101 -17 -6
-88 -42 -158 -79 -111 -60 -266 -131 -296 -136 -5 -1 -14 -4 -20 -7 -5 -4 -37
-14 -70 -24 -33 -9 -71 -21 -85 -26 -14 -5 -36 -10 -50 -13 -14 -2 -36 -7 -50
-10 -59 -14 -91 -18 -193 -23 -436 -23 -781 217 -863 602 -9 44 -17 291 -10
319 5 20 17 26 73 39 83 19 121 27 165 32 18 3 56 7 83 11 67 9 94 11 205 19
52 4 109 9 125 10 17 1 71 6 120 10 83 6 221 25 288 40 70 14 195 68 224 96
38 34 48 65 40 117 -11 70 -117 136 -258 162 -30 6 -65 13 -79 15 -30 7 -267
12 -330 7z"/>
</g>
</svg>
