<?xml version="1.0" standalone="no"?>
<!DOCTYPE svg PUBLIC "-//W3C//DTD SVG 20010904//EN"
 "http://www.w3.org/TR/2001/REC-SVG-20010904/DTD/svg10.dtd">
<svg version="1.0" xmlns="http://www.w3.org/2000/svg"
 width="255.000000pt" height="255.000000pt" viewBox="0 0 255.000000 255.000000"
 preserveAspectRatio="xMidYMid meet">
<metadata>
Created by potrace 1.14, written by Peter Selinger 2001-2017
</metadata>
<g transform="translate(0.000000,255.000000) scale(0.100000,-0.100000)"
fill="#000000" stroke="none">
<path d="M0 1275 l0 -1275 1275 0 1275 0 0 1275 0 1275 -1275 0 -1275 0 0
-1275z m1583 1061 c173 -44 320 -140 417 -271 70 -95 112 -198 151 -371 22
-96 23 -118 26 -786 l4 -686 -88 -6 c-48 -4 -107 -9 -131 -11 l-43 -5 1 453
c1 248 -1 460 -5 469 -12 30 -216 116 -388 164 -121 35 -379 45 -497 20 -151
-32 -285 -126 -339 -239 -63 -130 -64 -268 -5 -387 64 -127 172 -196 363 -232
112 -21 115 -21 210 -4 126 23 227 59 300 106 32 21 62 35 68 31 14 -9 123
-153 123 -162 0 -13 -162 -117 -226 -145 -189 -85 -456 -107 -656 -55 -197 51
-350 169 -428 332 -122 256 -80 557 108 760 105 114 247 191 431 236 98 23
118 25 286 21 237 -6 341 -30 563 -127 39 -17 75 -31 80 -31 27 0 14 131 -24
260 -70 232 -196 362 -404 417 -99 25 -329 22 -435 -6 -131 -35 -244 -95 -336
-178 -34 -31 -37 -32 -51 -15 -32 38 -118 184 -113 192 12 20 201 144 273 180
65 33 207 76 302 93 14 2 102 5 196 6 151 1 183 -2 267 -23z"/>
</g>
</svg>
