<?xml version="1.0" encoding="UTF-8"?>
<svg xmlns="http://www.w3.org/2000/svg" xmlns:xlink="http://www.w3.org/1999/xlink" width="550pt" height="660.71pt" viewBox="0 0 550 660.71" version="1.1">
<g id="surface1">
<path style=" stroke:none;fill-rule:nonzero;fill:rgb(100%,100%,100%);fill-opacity:1;" d="M 183.707031 235.976563 C 200.972656 235.457031 207.019531 222.144531 207.019531 191.050781 C 207.019531 157.652344 199.019531 148.929688 183.707031 148.554688 C 168.398438 148.929688 160.398438 157.652344 160.398438 191.050781 C 160.398438 222.144531 166.441406 235.457031 183.707031 235.976563 "/>
<path style=" stroke:none;fill-rule:nonzero;fill:rgb(100%,100%,100%);fill-opacity:1;" d="M 388.972656 360.433594 L 388.972656 176.410156 C 388.972656 156.273438 377.300781 148.519531 363.753906 148.199219 C 350.210938 148.519531 338.539063 156.273438 338.539063 176.410156 L 338.539063 360.433594 C 338.539063 380.566406 350.210938 388.324219 363.753906 388.644531 C 377.300781 388.324219 388.972656 380.566406 388.972656 360.433594 "/>
<path style=" stroke:none;fill-rule:nonzero;fill:rgb(100%,100%,100%);fill-opacity:1;" d="M 183.707031 387.988281 C 202.820313 387.414063 212.238281 371.339844 212.238281 335.394531 C 212.238281 302.792969 205.484375 283.042969 183.707031 282.429688 C 161.929688 283.042969 155.179688 302.792969 155.179688 335.394531 C 155.179688 371.339844 164.59375 387.414063 183.707031 387.988281 "/>
<path style=" stroke:none;fill-rule:nonzero;fill:rgb(100%,100%,100%);fill-opacity:1;" d="M 462.761719 482.894531 L 459.882813 482.894531 L 459.882813 470.820313 L 456.839844 482.894531 L 453.859375 482.894531 L 450.824219 470.820313 L 450.824219 482.894531 L 447.945313 482.894531 L 447.945313 467.554688 L 452.582031 467.554688 L 455.363281 478.019531 L 458.117188 467.554688 L 462.761719 467.554688 Z M 445.988281 470.152344 L 441.449219 470.152344 L 441.449219 482.894531 L 438.351563 482.894531 L 438.351563 470.152344 L 433.800781 470.152344 L 433.800781 467.554688 L 445.988281 467.554688 Z M 399.097656 553.019531 C 386.921875 553.019531 371.960938 549.179688 366.046875 546.042969 L 366.046875 523.375 C 373.351563 528.953125 387.617188 535.582031 397.355469 535.582031 C 403.273438 535.582031 411.273438 533.140625 411.273438 528.605469 C 411.273438 524.070313 407.792969 521.628906 400.835938 519.886719 C 393.878906 518.144531 387.964844 518.492188 379.960938 514.65625 C 371.960938 510.820313 364.308594 508.03125 364.308594 491.984375 C 364.308594 475.945313 376.484375 465.828125 400.835938 465.828125 C 413.707031 465.828125 427.625 469.316406 430.40625 471.0625 L 430.40625 493.730469 C 424.839844 489.546875 415.101563 483.265625 402.574219 483.265625 C 390.050781 483.265625 388.660156 487.453125 388.660156 490.242188 C 388.660156 493.03125 390.398438 493.730469 393.878906 495.472656 C 397.355469 497.21875 405.707031 497.21875 416.492188 500.707031 C 427.277344 504.195313 435.625 509.425781 435.625 525.117188 C 435.625 542.554688 421.363281 553.019531 399.097656 553.019531 M 307.574219 413.078125 C 296.785156 402.621094 287.046875 382.398438 287.046875 352.761719 L 287.046875 184.078125 C 287.046875 154.445313 296.785156 134.222656 307.574219 123.761719 C 318.175781 113.480469 329.132813 106.355469 362.878906 106.121094 L 364.632813 106.121094 C 398.378906 106.355469 409.335938 113.480469 419.9375 123.761719 C 430.726563 134.222656 440.464844 154.445313 440.464844 184.078125 L 440.464844 352.761719 C 440.464844 382.398438 430.726563 402.621094 419.9375 413.078125 C 409.335938 423.359375 398.378906 430.378906 364.632813 430.609375 L 362.878906 430.609375 C 329.132813 430.378906 318.175781 423.359375 307.574219 413.078125 M 350.390625 519.886719 C 350.390625 541.066406 339.449219 551.582031 315.601563 552.875 L 310.382813 552.875 C 286.53125 551.582031 275.59375 541.066406 275.59375 519.886719 L 275.59375 467.574219 L 299.945313 467.574219 L 299.945313 519.886719 C 299.945313 529.507813 303.492188 534.695313 312.992188 535.46875 C 322.488281 534.695313 326.039063 529.507813 326.039063 519.886719 L 326.039063 467.574219 L 350.390625 467.574219 Z M 265.15625 551.277344 L 204.273438 551.277344 L 204.273438 467.574219 L 228.625 467.574219 L 228.625 532.09375 L 265.15625 532.09375 Z M 159.046875 523.375 L 146.871094 523.375 L 146.871094 551.277344 L 122.519531 551.277344 L 122.519531 467.574219 L 159.046875 467.574219 C 177.835938 467.574219 190.359375 476.4375 190.359375 491.984375 C 190.359375 511.167969 181.292969 523.375 159.046875 523.375 M 106.816406 337.136719 C 106.816406 273.683594 130.476563 263.921875 139.867188 257.992188 C 131.171875 249.625 111.339844 235.679688 111.339844 192.445313 C 111.339844 144.25 127.988281 107.070313 182.660156 106.132813 L 184.753906 106.132813 C 239.429688 107.070313 256.074219 144.25 256.074219 192.445313 C 256.074219 235.679688 236.242188 249.625 227.546875 257.992188 C 236.941406 263.921875 260.597656 273.683594 260.597656 337.136719 C 260.597656 399.726563 235.195313 429.839844 184.753906 430.648438 L 182.554688 430.648438 C 132.113281 429.839844 106.816406 399.726563 106.816406 337.136719 M 435.714844 59.519531 L 115.476563 59.519531 C 85.230469 59.519531 60.714844 84.039063 60.714844 114.28125 L 60.714844 545.234375 C 60.714844 575.480469 85.230469 599.996094 115.476563 599.996094 L 435.714844 599.996094 C 465.957031 599.996094 490.476563 575.480469 490.476563 545.234375 L 490.476563 114.28125 C 490.476563 84.039063 465.957031 59.519531 435.714844 59.519531 "/>
<path style=" stroke:none;fill-rule:nonzero;fill:rgb(100%,100%,100%);fill-opacity:1;" d="M 152.089844 485.011719 L 146.871094 485.011719 L 146.871094 505.9375 L 152.089844 505.9375 C 162.550781 505.9375 165.636719 504.085938 165.972656 495.472656 C 165.636719 486.863281 162.550781 485.011719 152.089844 485.011719 "/>
<path style=" stroke:none;fill-rule:nonzero;fill:rgb(100%,100%,100%);fill-opacity:1;" d="M 522.617188 538.089844 C 522.617188 594.753906 488.769531 632.140625 433.335938 632.140625 L 117.859375 632.140625 C 62.417969 632.140625 28.570313 594.753906 28.570313 538.089844 L 28.570313 121.425781 C 28.570313 64.761719 62.417969 27.378906 117.859375 27.378906 L 433.335938 27.378906 C 488.769531 27.378906 522.617188 64.761719 522.617188 121.425781 Z M 435.714844 -0.00390625 L 114.285156 -0.00390625 C 51.167969 -0.00390625 0 51.164063 0 114.28125 L 0 546.425781 C 0 609.542969 51.167969 660.710938 114.285156 660.710938 L 435.714844 660.710938 C 498.832031 660.710938 550 609.542969 550 546.425781 L 550 114.28125 C 550 51.164063 498.832031 -0.00390625 435.714844 -0.00390625 "/>
<path style=" stroke:none;fill-rule:nonzero;fill:rgb(0%,0%,0%);fill-opacity:1;" d="M 416.492188 500.703125 C 405.707031 497.21875 397.355469 497.21875 393.878906 495.472656 C 390.398438 493.730469 388.660156 493.03125 388.660156 490.242188 C 388.660156 487.453125 390.050781 483.269531 402.574219 483.269531 C 415.101563 483.269531 424.84375 489.546875 430.40625 493.730469 L 430.40625 471.058594 C 427.625 469.316406 413.710938 465.828125 400.835938 465.828125 C 376.484375 465.828125 364.308594 475.941406 364.308594 491.984375 C 364.308594 508.027344 371.960938 510.820313 379.964844 514.65625 C 387.964844 518.492188 393.878906 518.144531 400.835938 519.886719 C 407.792969 521.628906 411.273438 524.070313 411.273438 528.605469 C 411.273438 533.140625 403.273438 535.578125 397.355469 535.578125 C 387.617188 535.578125 373.351563 528.953125 366.046875 523.375 L 366.046875 546.042969 C 371.960938 549.183594 386.921875 553.019531 399.097656 553.019531 C 421.363281 553.019531 435.625 542.554688 435.625 525.117188 C 435.625 509.425781 427.277344 504.191406 416.492188 500.703125 "/>
<path style=" stroke:none;fill-rule:nonzero;fill:rgb(0%,0%,0%);fill-opacity:1;" d="M 433.800781 470.148438 L 438.351563 470.148438 L 438.351563 482.894531 L 441.449219 482.894531 L 441.449219 470.148438 L 445.988281 470.148438 L 445.988281 467.554688 L 433.800781 467.554688 "/>
<path style=" stroke:none;fill-rule:nonzero;fill:rgb(0%,0%,0%);fill-opacity:1;" d="M 490.476563 545.234375 C 490.476563 575.476563 465.957031 599.996094 435.714844 599.996094 L 115.476563 599.996094 C 85.230469 599.996094 60.714844 575.476563 60.714844 545.234375 L 60.714844 114.28125 C 60.714844 84.035156 85.230469 59.519531 115.476563 59.519531 L 435.714844 59.519531 C 465.957031 59.519531 490.476563 84.035156 490.476563 114.28125 Z M 433.332031 27.378906 L 117.855469 27.378906 C 62.421875 27.378906 28.570313 64.761719 28.570313 121.425781 L 28.570313 538.089844 C 28.570313 594.753906 62.421875 632.136719 117.855469 632.136719 L 433.332031 632.136719 C 488.769531 632.136719 522.617188 594.753906 522.617188 538.089844 L 522.617188 121.425781 C 522.617188 64.761719 488.769531 27.378906 433.332031 27.378906 "/>
<path style=" stroke:none;fill-rule:nonzero;fill:rgb(0%,0%,0%);fill-opacity:1;" d="M 455.363281 478.019531 L 452.582031 467.554688 L 447.945313 467.554688 L 447.945313 482.894531 L 450.824219 482.894531 L 450.824219 470.820313 L 453.859375 482.894531 L 456.839844 482.894531 L 459.886719 470.820313 L 459.886719 482.894531 L 462.761719 482.894531 L 462.761719 467.554688 L 458.117188 467.554688 "/>
<path style=" stroke:none;fill-rule:nonzero;fill:rgb(0%,0%,0%);fill-opacity:1;" d="M 338.539063 360.433594 L 338.539063 176.410156 C 338.539063 156.273438 350.210938 148.519531 363.753906 148.199219 C 377.300781 148.519531 388.972656 156.273438 388.972656 176.410156 L 388.972656 360.433594 C 388.972656 380.566406 377.300781 388.324219 363.753906 388.644531 C 350.210938 388.324219 338.539063 380.566406 338.539063 360.433594 M 419.9375 413.078125 C 430.726563 402.621094 440.46875 382.398438 440.46875 352.761719 L 440.46875 184.078125 C 440.46875 154.445313 430.726563 134.222656 419.9375 123.761719 C 409.335938 113.480469 398.378906 106.355469 364.632813 106.121094 L 362.878906 106.121094 C 329.132813 106.355469 318.175781 113.480469 307.574219 123.761719 C 296.785156 134.222656 287.046875 154.445313 287.046875 184.078125 L 287.046875 352.761719 C 287.046875 382.398438 296.785156 402.621094 307.574219 413.078125 C 318.175781 423.359375 329.132813 430.378906 362.878906 430.609375 L 364.632813 430.609375 C 398.378906 430.378906 409.335938 423.359375 419.9375 413.078125 "/>
<path style=" stroke:none;fill-rule:nonzero;fill:rgb(0%,0%,0%);fill-opacity:1;" d="M 326.039063 519.886719 C 326.039063 529.507813 322.488281 534.695313 312.992188 535.46875 C 303.496094 534.695313 299.945313 529.507813 299.945313 519.886719 L 299.945313 467.574219 L 275.59375 467.574219 L 275.59375 519.886719 C 275.59375 541.066406 286.535156 551.585938 310.382813 552.878906 L 315.601563 552.878906 C 339.449219 551.585938 350.390625 541.066406 350.390625 519.886719 L 350.390625 467.574219 L 326.039063 467.574219 "/>
<path style=" stroke:none;fill-rule:nonzero;fill:rgb(0%,0%,0%);fill-opacity:1;" d="M 152.089844 505.9375 L 146.871094 505.9375 L 146.871094 485.011719 L 152.089844 485.011719 C 162.550781 485.011719 165.636719 486.863281 165.972656 495.472656 C 165.636719 504.085938 162.550781 505.9375 152.089844 505.9375 M 159.046875 467.574219 L 122.519531 467.574219 L 122.519531 551.277344 L 146.871094 551.277344 L 146.871094 523.375 L 159.046875 523.375 C 181.292969 523.375 190.359375 511.167969 190.359375 491.984375 C 190.359375 476.4375 177.835938 467.574219 159.046875 467.574219 "/>
<path style=" stroke:none;fill-rule:nonzero;fill:rgb(0%,0%,0%);fill-opacity:1;" d="M 183.707031 282.429688 C 205.484375 283.042969 212.238281 302.796875 212.238281 335.394531 C 212.238281 371.339844 202.820313 387.414063 183.707031 387.988281 C 164.59375 387.414063 155.179688 371.339844 155.179688 335.394531 C 155.179688 302.796875 161.929688 283.042969 183.707031 282.429688 M 183.707031 148.554688 C 199.019531 148.929688 207.019531 157.652344 207.019531 191.054688 C 207.019531 222.144531 200.972656 235.457031 183.707031 235.976563 C 166.441406 235.457031 160.398438 222.144531 160.398438 191.054688 C 160.398438 157.652344 168.398438 148.929688 183.707031 148.554688 M 182.554688 430.648438 L 184.753906 430.648438 C 235.195313 429.839844 260.601563 399.726563 260.601563 337.136719 C 260.601563 273.683594 236.941406 263.921875 227.546875 257.992188 C 236.246094 249.625 256.078125 235.679688 256.078125 192.445313 C 256.078125 144.253906 239.429688 107.070313 184.753906 106.132813 L 182.664063 106.132813 C 127.988281 107.070313 111.339844 144.253906 111.339844 192.445313 C 111.339844 235.679688 131.171875 249.625 139.867188 257.992188 C 130.476563 263.921875 106.816406 273.683594 106.816406 337.136719 C 106.816406 399.726563 132.113281 429.839844 182.554688 430.648438 "/>
<path style=" stroke:none;fill-rule:nonzero;fill:rgb(0%,0%,0%);fill-opacity:1;" d="M 228.628906 467.574219 L 204.273438 467.574219 L 204.273438 551.273438 L 265.15625 551.273438 L 265.15625 532.09375 L 228.628906 532.09375 "/>
</g>
</svg>
