<?xml version="1.0" encoding="UTF-8"?>
<svg xmlns="http://www.w3.org/2000/svg" xmlns:xlink="http://www.w3.org/1999/xlink" width="550pt" height="743.56pt" viewBox="0 0 550 743.56" version="1.1">
<defs>
<clipPath id="clip1">
  <path d="M 0 0 L 550 0 L 550 743.558594 L 0 743.558594 Z M 0 0 "/>
</clipPath>
</defs>
<g id="surface1">
<path style=" stroke:none;fill-rule:nonzero;fill:rgb(63.476563%,44.309998%,16.088867%);fill-opacity:1;" d="M 183.699219 389.613281 C 202.789063 389.042969 212.195313 373.003906 212.195313 337.128906 C 212.195313 304.589844 205.449219 284.875 183.699219 284.265625 C 161.949219 284.875 155.203125 304.589844 155.203125 337.128906 C 155.203125 373.003906 164.609375 389.042969 183.699219 389.613281 "/>
<path style=" stroke:none;fill-rule:nonzero;fill:rgb(63.476563%,44.309998%,16.088867%);fill-opacity:1;" d="M 152.117188 486.449219 L 146.90625 486.449219 L 146.90625 507.335938 L 152.117188 507.335938 C 162.566406 507.335938 165.648438 505.488281 165.984375 496.890625 C 165.648438 488.296875 162.566406 486.449219 152.117188 486.449219 "/>
<path style=" stroke:none;fill-rule:nonzero;fill:rgb(63.476563%,44.309998%,16.088867%);fill-opacity:1;" d="M 183.699219 237.902344 C 200.945313 237.382813 206.984375 224.09375 206.984375 193.066406 C 206.984375 159.730469 198.992188 151.023438 183.699219 150.648438 C 168.40625 151.023438 160.417969 159.730469 160.417969 193.066406 C 160.417969 224.09375 166.453125 237.382813 183.699219 237.902344 "/>
<path style=" stroke:none;fill-rule:nonzero;fill:rgb(63.476563%,44.309998%,16.088867%);fill-opacity:1;" d="M 388.722656 362.113281 L 388.722656 178.449219 C 388.722656 158.355469 377.066406 150.613281 363.535156 150.296875 C 350.007813 150.613281 338.347656 158.355469 338.347656 178.449219 L 338.347656 362.113281 C 338.347656 382.210938 350.007813 389.949219 363.535156 390.269531 C 377.066406 389.949219 388.722656 382.210938 388.722656 362.113281 "/>
<g clip-path="url(#clip1)" clip-rule="nonzero">
<path style=" stroke:none;fill-rule:nonzero;fill:rgb(63.476563%,44.309998%,16.088867%);fill-opacity:1;" d="M 522.214844 612.070313 C 522.214844 668.625 485.492188 712.898438 430.121094 712.898438 L 120.835938 712.898438 C 65.464844 712.898438 28.746094 668.625 28.746094 612.070313 L 28.746094 130.535156 C 28.746094 73.984375 65.464844 29.710938 120.835938 29.710938 L 430.121094 29.710938 C 485.492188 29.710938 522.214844 73.984375 522.214844 130.535156 Z M 439.808594 0.0078125 L 110.191406 0.0078125 C 49.335938 0.0078125 0 49.339844 0 110.195313 L 0 633.367188 C 0 694.226563 49.335938 743.558594 110.191406 743.558594 L 439.808594 743.558594 C 500.664063 743.558594 550 694.226563 550 633.367188 L 550 110.195313 C 550 49.339844 500.664063 0.0078125 439.808594 0.0078125 "/>
</g>
<path style=" stroke:none;fill-rule:nonzero;fill:rgb(63.476563%,44.309998%,16.088867%);fill-opacity:1;" d="M 452.546875 482.082031 C 452.546875 481.15625 452.265625 480.492188 451.699219 480.097656 C 451.136719 479.695313 450.242188 479.5 449.023438 479.5 L 447.113281 479.5 L 447.113281 484.710938 L 449.417969 484.710938 C 450.457031 484.710938 451.238281 484.488281 451.761719 484.054688 C 452.285156 483.613281 452.546875 482.957031 452.546875 482.082031 "/>
<path style=" stroke:none;fill-rule:nonzero;fill:rgb(63.476563%,44.309998%,16.088867%);fill-opacity:1;" d="M 458.441406 494.242188 C 456.03125 496.648438 453.105469 497.847656 449.675781 497.847656 C 446.214844 497.847656 443.28125 496.648438 440.882813 494.242188 C 438.476563 491.839844 437.277344 488.921875 437.277344 485.488281 C 437.277344 482.054688 438.484375 479.140625 440.894531 476.734375 C 443.308594 474.332031 446.242188 473.128906 449.691406 473.128906 C 453.113281 473.128906 456.03125 474.332031 458.441406 476.734375 C 460.855469 479.140625 462.0625 482.054688 462.0625 485.488281 C 462.0625 488.921875 460.855469 491.839844 458.441406 494.242188 M 398.835938 554.324219 C 386.671875 554.324219 371.730469 550.496094 365.824219 547.363281 L 365.824219 524.738281 C 373.121094 530.308594 387.367188 536.921875 397.097656 536.921875 C 403.003906 536.921875 410.996094 534.484375 410.996094 529.960938 C 410.996094 525.433594 407.523438 523 400.574219 521.257813 C 393.621094 519.515625 387.714844 519.863281 379.722656 516.039063 C 371.730469 512.207031 364.089844 509.425781 364.089844 493.410156 C 364.089844 477.402344 376.25 467.304688 400.574219 467.304688 C 413.429688 467.304688 427.328125 470.785156 430.109375 472.527344 L 430.109375 495.152344 C 424.550781 490.972656 414.820313 484.710938 402.308594 484.710938 C 389.800781 484.710938 388.410156 488.886719 388.410156 491.671875 C 388.410156 494.457031 390.148438 495.152344 393.621094 496.890625 C 397.097656 498.632813 405.4375 498.632813 416.210938 502.113281 C 426.980469 505.597656 435.320313 510.816406 435.320313 526.480469 C 435.320313 543.882813 421.074219 554.324219 398.835938 554.324219 M 307.417969 414.660156 C 296.644531 404.222656 286.914063 384.039063 286.914063 354.460938 L 286.914063 186.105469 C 286.914063 156.527344 296.644531 136.347656 307.417969 125.90625 C 318.007813 115.644531 328.953125 108.53125 362.660156 108.300781 L 364.414063 108.300781 C 398.121094 108.53125 409.0625 115.644531 419.652344 125.90625 C 430.425781 136.347656 440.15625 156.527344 440.15625 186.105469 L 440.15625 354.460938 C 440.15625 384.039063 430.425781 404.222656 419.652344 414.660156 C 409.0625 424.921875 398.121094 431.925781 364.414063 432.15625 L 362.660156 432.15625 C 328.953125 431.925781 318.007813 424.921875 307.417969 414.660156 M 350.1875 521.257813 C 350.1875 542.394531 339.257813 552.894531 315.4375 554.183594 L 310.226563 554.183594 C 286.402344 552.894531 275.476563 542.394531 275.476563 521.257813 L 275.476563 469.046875 L 299.800781 469.046875 L 299.800781 521.257813 C 299.800781 530.863281 303.34375 536.039063 312.832031 536.808594 C 322.320313 536.039063 325.863281 530.863281 325.863281 521.257813 L 325.863281 469.046875 L 350.1875 469.046875 Z M 265.050781 552.585938 L 204.242188 552.585938 L 204.242188 469.046875 L 228.566406 469.046875 L 228.566406 533.441406 L 265.050781 533.441406 Z M 159.066406 524.738281 L 146.90625 524.738281 L 146.90625 552.585938 L 122.582031 552.585938 L 122.582031 469.046875 L 159.066406 469.046875 C 177.832031 469.046875 190.339844 477.894531 190.339844 493.410156 C 190.339844 512.554688 181.289063 524.738281 159.066406 524.738281 M 111.414063 194.457031 C 111.414063 146.355469 128.046875 109.246094 182.65625 108.3125 L 184.742188 108.3125 C 239.355469 109.246094 255.984375 146.355469 255.984375 194.457031 C 255.984375 237.605469 236.175781 251.523438 227.484375 259.875 C 236.867188 265.792969 260.5 275.535156 260.5 338.867188 C 260.5 401.332031 235.125 431.386719 184.742188 432.195313 L 182.546875 432.195313 C 132.164063 431.386719 106.898438 401.332031 106.898438 338.867188 C 106.898438 275.535156 130.527344 265.792969 139.914063 259.875 C 131.222656 251.523438 111.414063 237.605469 111.414063 194.457031 M 421.433594 66.214844 L 129.523438 66.214844 C 81.5625 66.214844 61.757813 90.3125 61.757813 140.964844 L 61.757813 572.089844 L 489.199219 572.089844 L 489.199219 140.964844 C 489.199219 90.3125 469.398438 66.214844 421.433594 66.214844 "/>
<path style=" stroke:none;fill-rule:nonzero;fill:rgb(63.476563%,44.309998%,16.088867%);fill-opacity:1;" d="M 452.882813 493.1875 L 451.234375 489.414063 C 450.828125 488.5 450.402344 487.8125 449.953125 487.351563 C 449.503906 486.894531 449.03125 486.664063 448.53125 486.664063 L 447.113281 486.664063 L 447.113281 493.1875 L 444.777344 493.1875 L 444.777344 477.515625 L 449.296875 477.515625 C 451.109375 477.515625 452.523438 477.890625 453.539063 478.644531 C 454.558594 479.398438 455.070313 480.453125 455.070313 481.808594 C 455.070313 482.886719 454.722656 483.804688 454.03125 484.558594 C 453.335938 485.3125 452.363281 485.816406 451.113281 486.070313 C 451.550781 486.191406 451.988281 486.496094 452.425781 486.980469 C 452.863281 487.464844 453.285156 488.132813 453.695313 488.988281 L 455.726563 493.1875 Z M 449.675781 474.625 C 446.675781 474.625 444.113281 475.679688 441.996094 477.789063 C 439.878906 479.898438 438.820313 482.464844 438.820313 485.488281 C 438.820313 488.515625 439.878906 491.078125 441.996094 493.183594 C 444.113281 495.285156 446.675781 496.335938 449.675781 496.335938 C 452.691406 496.335938 455.25 495.28125 457.359375 493.175781 C 459.464844 491.066406 460.519531 488.503906 460.519531 485.488281 C 460.519531 482.472656 459.464844 479.910156 457.351563 477.796875 C 455.238281 475.683594 452.679688 474.625 449.675781 474.625 "/>
<path style=" stroke:none;fill-rule:nonzero;fill:rgb(0%,0%,0%);fill-opacity:1;" d="M 449.417969 484.710938 L 447.113281 484.710938 L 447.113281 479.5 L 449.023438 479.5 C 450.242188 479.5 451.136719 479.695313 451.699219 480.097656 C 452.265625 480.492188 452.546875 481.15625 452.546875 482.082031 C 452.546875 482.957031 452.285156 483.613281 451.761719 484.054688 C 451.238281 484.488281 450.457031 484.710938 449.417969 484.710938 M 452.425781 486.980469 C 451.988281 486.496094 451.550781 486.191406 451.113281 486.070313 C 452.363281 485.8125 453.335938 485.3125 454.027344 484.558594 C 454.722656 483.804688 455.066406 482.886719 455.066406 481.808594 C 455.066406 480.453125 454.558594 479.398438 453.539063 478.644531 C 452.523438 477.890625 451.109375 477.515625 449.296875 477.515625 L 444.773438 477.515625 L 444.773438 493.1875 L 447.113281 493.1875 L 447.113281 486.664063 L 448.53125 486.664063 C 449.03125 486.664063 449.503906 486.894531 449.953125 487.351563 C 450.398438 487.8125 450.828125 488.496094 451.234375 489.414063 L 452.882813 493.1875 L 455.726563 493.1875 L 453.691406 488.988281 C 453.285156 488.132813 452.863281 487.464844 452.425781 486.980469 "/>
<path style=" stroke:none;fill-rule:nonzero;fill:rgb(0%,0%,0%);fill-opacity:1;" d="M 325.863281 521.257813 C 325.863281 530.863281 322.320313 536.035156 312.832031 536.808594 C 303.34375 536.035156 299.800781 530.863281 299.800781 521.257813 L 299.800781 469.046875 L 275.476563 469.046875 L 275.476563 521.257813 C 275.476563 542.394531 286.402344 552.894531 310.226563 554.183594 L 315.4375 554.183594 C 339.257813 552.894531 350.1875 542.394531 350.1875 521.257813 L 350.1875 469.046875 L 325.863281 469.046875 "/>
<path style=" stroke:none;fill-rule:nonzero;fill:rgb(0%,0%,0%);fill-opacity:1;" d="M 152.117188 507.335938 L 146.90625 507.335938 L 146.90625 486.449219 L 152.117188 486.449219 C 162.566406 486.449219 165.648438 488.296875 165.984375 496.890625 C 165.648438 505.488281 162.566406 507.335938 152.117188 507.335938 M 159.066406 469.046875 L 122.582031 469.046875 L 122.582031 552.585938 L 146.90625 552.585938 L 146.90625 524.738281 L 159.066406 524.738281 C 181.285156 524.738281 190.34375 512.558594 190.34375 493.410156 C 190.34375 477.894531 177.832031 469.046875 159.066406 469.046875 "/>
<path style=" stroke:none;fill-rule:nonzero;fill:rgb(0%,0%,0%);fill-opacity:1;" d="M 228.566406 469.046875 L 204.242188 469.046875 L 204.242188 552.585938 L 265.050781 552.585938 L 265.050781 533.441406 L 228.566406 533.441406 "/>
<path style=" stroke:none;fill-rule:nonzero;fill:rgb(0%,0%,0%);fill-opacity:1;" d="M 416.210938 502.113281 C 405.4375 498.632813 397.097656 498.632813 393.621094 496.890625 C 390.148438 495.152344 388.410156 494.457031 388.410156 491.671875 C 388.410156 488.886719 389.800781 484.710938 402.3125 484.710938 C 414.820313 484.710938 424.550781 490.976563 430.109375 495.152344 L 430.109375 472.527344 C 427.328125 470.785156 413.429688 467.304688 400.574219 467.304688 C 376.25 467.304688 364.085938 477.402344 364.085938 493.410156 C 364.085938 509.425781 371.730469 512.210938 379.722656 516.039063 C 387.71875 519.867188 393.621094 519.519531 400.574219 521.257813 C 407.523438 523 410.996094 525.433594 410.996094 529.960938 C 410.996094 534.484375 403.003906 536.921875 397.097656 536.921875 C 387.367188 536.921875 373.121094 530.308594 365.824219 524.738281 L 365.824219 547.363281 C 371.730469 550.496094 386.675781 554.324219 398.835938 554.324219 C 421.074219 554.324219 435.320313 543.882813 435.320313 526.480469 C 435.320313 510.816406 426.980469 505.59375 416.210938 502.113281 "/>
<path style=" stroke:none;fill-rule:nonzero;fill:rgb(0%,0%,0%);fill-opacity:1;" d="M 338.347656 362.113281 L 338.347656 178.449219 C 338.347656 158.355469 350.007813 150.613281 363.535156 150.296875 C 377.066406 150.613281 388.722656 158.355469 388.722656 178.449219 L 388.722656 362.113281 C 388.722656 382.210938 377.066406 389.949219 363.535156 390.269531 C 350.007813 389.949219 338.347656 382.210938 338.347656 362.113281 M 419.652344 414.660156 C 430.425781 404.21875 440.15625 384.035156 440.15625 354.460938 L 440.15625 186.105469 C 440.15625 156.527344 430.425781 136.34375 419.652344 125.90625 C 409.0625 115.644531 398.121094 108.53125 364.414063 108.300781 L 362.660156 108.300781 C 328.953125 108.53125 318.007813 115.644531 307.417969 125.90625 C 296.644531 136.34375 286.914063 156.527344 286.914063 186.105469 L 286.914063 354.460938 C 286.914063 384.035156 296.644531 404.21875 307.417969 414.660156 C 318.007813 424.921875 328.953125 431.925781 362.660156 432.15625 L 364.414063 432.15625 C 398.121094 431.925781 409.0625 424.921875 419.652344 414.660156 "/>
<path style=" stroke:none;fill-rule:nonzero;fill:rgb(0%,0%,0%);fill-opacity:1;" d="M 457.359375 493.175781 C 455.253906 495.28125 452.691406 496.335938 449.675781 496.335938 C 446.671875 496.335938 444.113281 495.285156 441.996094 493.183594 C 439.878906 491.078125 438.820313 488.515625 438.820313 485.488281 C 438.820313 482.464844 439.878906 479.898438 441.996094 477.789063 C 444.113281 475.679688 446.671875 474.625 449.675781 474.625 C 452.679688 474.625 455.238281 475.683594 457.351563 477.796875 C 459.464844 479.910156 460.519531 482.472656 460.519531 485.488281 C 460.519531 488.503906 459.464844 491.066406 457.359375 493.175781 M 449.691406 473.128906 C 446.242188 473.128906 443.308594 474.328125 440.894531 476.734375 C 438.484375 479.136719 437.277344 482.054688 437.277344 485.488281 C 437.277344 488.921875 438.476563 491.839844 440.878906 494.242188 C 443.285156 496.648438 446.214844 497.851563 449.675781 497.851563 C 453.105469 497.851563 456.03125 496.648438 458.441406 494.242188 C 460.855469 491.839844 462.0625 488.921875 462.0625 485.488281 C 462.0625 482.054688 460.855469 479.136719 458.441406 476.734375 C 456.03125 474.328125 453.113281 473.128906 449.691406 473.128906 "/>
<path style=" stroke:none;fill-rule:nonzero;fill:rgb(0%,0%,0%);fill-opacity:1;" d="M 183.699219 284.265625 C 205.449219 284.875 212.195313 304.589844 212.195313 337.125 C 212.195313 373 202.789063 389.042969 183.699219 389.613281 C 164.609375 389.042969 155.203125 373 155.203125 337.125 C 155.203125 304.589844 161.949219 284.875 183.699219 284.265625 M 183.699219 150.648438 C 198.992188 151.023438 206.984375 159.726563 206.984375 193.066406 C 206.984375 224.097656 200.945313 237.382813 183.699219 237.902344 C 166.453125 237.382813 160.417969 224.097656 160.417969 193.066406 C 160.417969 159.726563 168.40625 151.023438 183.699219 150.648438 M 106.898438 338.867188 C 106.898438 401.332031 132.164063 431.386719 182.546875 432.195313 L 184.742188 432.195313 C 235.125 431.386719 260.503906 401.332031 260.503906 338.867188 C 260.503906 275.535156 236.871094 265.792969 227.488281 259.875 C 236.175781 251.523438 255.984375 237.605469 255.984375 194.457031 C 255.984375 146.355469 239.355469 109.246094 184.742188 108.3125 L 182.65625 108.3125 C 128.046875 109.246094 111.414063 146.355469 111.414063 194.457031 C 111.414063 237.605469 131.226563 251.523438 139.914063 259.875 C 130.53125 265.792969 106.898438 275.535156 106.898438 338.867188 "/>
<path style=" stroke:none;fill-rule:nonzero;fill:rgb(0%,0%,0%);fill-opacity:1;" d="M 489.199219 572.089844 L 61.757813 572.089844 L 61.757813 140.964844 C 61.757813 90.3125 81.5625 66.214844 129.523438 66.214844 L 421.433594 66.214844 C 469.398438 66.214844 489.199219 90.3125 489.199219 140.964844 Z M 432.140625 617.078125 L 405.3125 617.078125 L 405.3125 635.28125 L 426.394531 635.28125 L 426.394531 644.867188 L 405.3125 644.867188 L 405.3125 664.03125 L 432.140625 664.03125 L 432.140625 673.609375 L 393.816406 673.609375 L 393.816406 607.496094 L 432.140625 607.496094 Z M 386.148438 673.609375 L 343.988281 673.609375 L 343.988281 664.03125 L 371.777344 617.078125 L 344.949219 617.078125 L 344.949219 607.496094 L 385.191406 607.496094 L 385.191406 616.121094 L 356.445313 664.03125 L 386.148438 664.03125 Z M 335.367188 673.609375 L 324.824219 673.609375 L 301.828125 621.867188 L 301.828125 673.609375 L 292.246094 673.609375 L 292.246094 607.496094 L 305.660156 607.496094 L 325.785156 652.53125 L 325.785156 607.496094 L 335.367188 607.496094 Z M 256.792969 674.378906 C 240.886719 674.378906 232.839844 663.265625 232.839844 639.308594 C 232.839844 615.355469 242.613281 606.539063 256.984375 606.539063 C 271.933594 606.539063 280.367188 617.652344 280.367188 640.265625 C 280.367188 662.304688 272.699219 674.378906 256.792969 674.378906 M 212.71875 673.609375 L 202.367188 645.824219 L 193.554688 645.824219 L 193.554688 673.609375 L 182.054688 673.609375 L 182.054688 607.496094 L 203.136719 607.496094 C 216.359375 607.496094 222.683594 615.929688 222.683594 626.46875 C 222.683594 637.199219 217.316406 641.226563 212.910156 643.90625 L 225.175781 673.609375 Z M 150.242188 672.652344 L 126.480469 672.652344 L 126.480469 607.496094 L 150.433594 607.496094 C 162.316406 607.496094 167.109375 615.734375 167.109375 623.976563 C 167.109375 632.21875 164.234375 635.667969 157.71875 638.542969 C 164.425781 640.648438 169.214844 646.78125 169.214844 654.449219 C 169.214844 662.878906 164.871094 672.652344 150.242188 672.652344 M 430.121094 29.710938 L 120.835938 29.710938 C 65.464844 29.710938 28.746094 73.980469 28.746094 130.535156 L 28.746094 612.070313 C 28.746094 668.625 65.464844 712.898438 120.835938 712.898438 L 430.121094 712.898438 C 485.492188 712.898438 522.214844 668.625 522.214844 612.070313 L 522.214844 130.535156 C 522.214844 73.980469 485.492188 29.710938 430.121094 29.710938 "/>
<path style=" stroke:none;fill-rule:nonzero;fill:rgb(100%,100%,100%);fill-opacity:1;" d="M 393.816406 673.613281 L 432.144531 673.613281 L 432.144531 664.03125 L 405.3125 664.03125 L 405.3125 644.867188 L 426.394531 644.867188 L 426.394531 635.285156 L 405.3125 635.285156 L 405.3125 617.078125 L 432.144531 617.078125 L 432.144531 607.496094 L 393.816406 607.496094 "/>
<path style=" stroke:none;fill-rule:nonzero;fill:rgb(100%,100%,100%);fill-opacity:1;" d="M 385.191406 616.121094 L 385.191406 607.496094 L 344.949219 607.496094 L 344.949219 617.078125 L 371.777344 617.078125 L 343.988281 664.03125 L 343.988281 673.613281 L 386.148438 673.613281 L 386.148438 664.03125 L 356.445313 664.03125 "/>
<path style=" stroke:none;fill-rule:nonzero;fill:rgb(100%,100%,100%);fill-opacity:1;" d="M 325.785156 652.53125 L 305.660156 607.496094 L 292.246094 607.496094 L 292.246094 673.613281 L 301.828125 673.613281 L 301.828125 621.871094 L 324.824219 673.613281 L 335.367188 673.613281 L 335.367188 607.496094 L 325.785156 607.496094 "/>
<path style=" stroke:none;fill-rule:nonzero;fill:rgb(100%,100%,100%);fill-opacity:1;" d="M 256.796875 665.179688 C 248.554688 665.179688 244.339844 658.089844 244.339844 640.265625 C 244.339844 622.445313 249.320313 615.738281 256.605469 615.738281 C 263.882813 615.738281 269.058594 622.0625 269.058594 638.925781 C 269.058594 655.789063 265.035156 665.179688 256.796875 665.179688 M 256.984375 606.539063 C 242.613281 606.539063 232.839844 615.355469 232.839844 639.308594 C 232.839844 663.265625 240.886719 674.378906 256.796875 674.378906 C 272.699219 674.378906 280.367188 662.304688 280.367188 640.265625 C 280.367188 617.652344 271.933594 606.539063 256.984375 606.539063 "/>
<path style=" stroke:none;fill-rule:nonzero;fill:rgb(100%,100%,100%);fill-opacity:1;" d="M 201.21875 637.199219 L 193.554688 637.199219 L 193.554688 617.078125 L 201.21875 617.078125 C 208.695313 617.078125 211.566406 620.527344 211.566406 626.085938 C 211.566406 631.640625 209.269531 637.199219 201.21875 637.199219 M 222.683594 626.46875 C 222.683594 615.929688 216.359375 607.496094 203.136719 607.496094 L 182.054688 607.496094 L 182.054688 673.613281 L 193.554688 673.613281 L 193.554688 645.824219 L 202.367188 645.824219 L 212.71875 673.613281 L 225.175781 673.613281 L 212.910156 643.90625 C 217.316406 641.222656 222.683594 637.199219 222.683594 626.46875 "/>
<path style=" stroke:none;fill-rule:nonzero;fill:rgb(100%,100%,100%);fill-opacity:1;" d="M 147.5625 664.03125 L 137.980469 664.03125 L 137.980469 643.90625 L 147.5625 643.90625 C 153.558594 643.90625 157.144531 647.355469 157.144531 653.683594 C 157.144531 660.003906 152.996094 664.03125 147.5625 664.03125 M 137.980469 617.078125 L 145.644531 617.078125 C 151.777344 617.078125 155.609375 618.996094 155.609375 625.320313 C 155.609375 631.644531 151.203125 635.285156 145.644531 635.285156 L 137.980469 635.285156 Z M 157.71875 638.542969 C 164.234375 635.667969 167.109375 632.21875 167.109375 623.976563 C 167.109375 615.738281 162.316406 607.496094 150.4375 607.496094 L 126.480469 607.496094 L 126.480469 672.652344 L 150.242188 672.652344 C 164.871094 672.652344 169.214844 662.878906 169.214844 654.449219 C 169.214844 646.78125 164.425781 640.648438 157.71875 638.542969 "/>
<path style=" stroke:none;fill-rule:nonzero;fill:rgb(0%,0%,0%);fill-opacity:1;" d="M 155.609375 625.320313 C 155.609375 618.996094 151.777344 617.078125 145.644531 617.078125 L 137.980469 617.078125 L 137.980469 635.285156 L 145.644531 635.285156 C 151.203125 635.285156 155.609375 631.644531 155.609375 625.320313 "/>
<path style=" stroke:none;fill-rule:nonzero;fill:rgb(0%,0%,0%);fill-opacity:1;" d="M 147.5625 643.90625 L 137.980469 643.90625 L 137.980469 664.03125 L 147.5625 664.03125 C 152.996094 664.03125 157.144531 660.003906 157.144531 653.679688 C 157.144531 647.355469 153.558594 643.90625 147.5625 643.90625 "/>
<path style=" stroke:none;fill-rule:nonzero;fill:rgb(0%,0%,0%);fill-opacity:1;" d="M 201.21875 617.078125 L 193.554688 617.078125 L 193.554688 637.199219 L 201.21875 637.199219 C 209.269531 637.199219 211.566406 631.640625 211.566406 626.085938 C 211.566406 620.527344 208.695313 617.078125 201.21875 617.078125 "/>
<path style=" stroke:none;fill-rule:nonzero;fill:rgb(0%,0%,0%);fill-opacity:1;" d="M 256.601563 615.738281 C 249.320313 615.738281 244.339844 622.445313 244.339844 640.265625 C 244.339844 658.089844 248.554688 665.179688 256.792969 665.179688 C 265.035156 665.179688 269.058594 655.789063 269.058594 638.925781 C 269.058594 622.0625 263.886719 615.738281 256.601563 615.738281 "/>
</g>
</svg>
