<svg id="Layer_1" data-name="Layer 1" xmlns="http://www.w3.org/2000/svg" viewBox="0 0 549.99999 743.55468"><defs><style>.cls-1{fill:#a7a9ac;}.cls-2{fill:#fff;}</style></defs><path class="cls-1" d="M183.582,511.21681h-5.2124v20.8838h5.2124c10.4478,0,13.5323-1.8457,13.8667-10.4424C197.1143,513.06251,194.0298,511.21681,183.582,511.21681Z" transform="translate(-31.4639 -24.77152)"/><path class="cls-1" d="M420.18749,386.88131v-183.665c0-20.09519-11.6582-27.83449-25.18749-28.15531-13.52931.32082-25.18751,8.06012-25.18751,28.15531v183.665c0,20.0943,11.6582,27.8355,25.18751,28.1548C408.52929,414.71681,420.18749,406.97561,420.18749,386.88131Z" transform="translate(-31.4639 -24.77152)"/><path class="cls-1" d="M484.01169,506.84771a2.25494,2.25494,0,0,0-.8476-1.9854,4.719,4.719,0,0,0-2.6787-.5967h-1.9092v5.21h2.3056a3.58062,3.58062,0,0,0,2.3438-.6572A2.42025,2.42025,0,0,0,484.01169,506.84771Z" transform="translate(-31.4639 -24.77152)"/><path class="cls-1" d="M215.16359,414.38181c19.0908-.5713,28.4961-16.6142,28.4961-52.4892,0-32.5371-6.7451-52.2505-28.4961-52.8628-21.751.6123-28.49559,20.3257-28.49559,52.8628C186.668,397.76761,196.0732,413.81051,215.16359,414.38181Z" transform="translate(-31.4639 -24.77152)"/><path class="cls-1" d="M215.16359,262.66941c17.2461-.5215,23.2827-13.8076,23.2827-44.8383,0-33.336-7.9912-42.04149-23.2827-42.41611-15.292.37462-23.28319,9.08012-23.28319,42.41611C191.8804,248.86181,197.917,262.14791,215.16359,262.66941Z" transform="translate(-31.4639 -24.77152)"/><path class="cls-1" d="M452.89839,90.98142H160.9883c-47.9634,0-67.7656,24.0977-67.7656,74.7505V596.8545H520.66309V165.73192C520.66309,115.07912,500.86129,90.98142,452.89839,90.98142ZM142.8799,219.22311c0-48.101,16.6284-85.21139,71.24019-86.14449h2.0874c54.6113.9331,71.2398,38.0435,71.2398,86.14449,0,43.1485-19.8086,57.06789-28.4971,65.419,9.3833,5.916,33.0151,15.6587,33.0151,78.9902,0,62.4673-25.3764,92.521-75.7578,93.32769h-2.1963c-50.38179-.80669-75.64889-30.86039-75.64889-93.32769,0-63.3315,23.6314-73.0742,33.0142-78.9902C162.6885,276.291,142.8799,262.37161,142.8799,219.22311Zm47.6518,330.2818H178.3696v27.8467H154.0454v-83.5391h36.4863c18.76419,0,31.274,8.8477,31.274,24.3652C221.80569,537.32321,212.75149,549.50491,190.5317,549.50491Zm105.98439,27.8467h-60.811v-83.5391h24.3247V558.207h36.4863Zm85.1343-31.3272c0,21.1377-10.9268,31.6358-34.7481,32.9258h-5.2119c-23.8222-1.29-34.749-11.7881-34.749-32.9258v-52.2119h24.3232v52.2119c0,9.6035,3.544,14.7793,13.0313,15.5498,9.4873-.7705,13.0303-5.9463,13.0303-15.5498v-52.2119h24.3242Zm-42.7676-106.5986c-10.7724-10.4395-20.5039-30.6221-20.5039-60.2002v-168.354c0-29.57769,9.7315-49.76029,20.5039-60.19969,10.5899-10.2617,21.53321-17.3731,55.24021-17.605h1.754c33.707.2319,44.65029,7.3433,55.24019,17.605,10.7734,10.4394,20.5029,30.622,20.5029,60.19969v168.354c0,29.5781-9.7295,49.7607-20.5029,60.2002-10.5899,10.2617-21.53319,17.2646-55.24019,17.4951h-1.754C360.416,456.69041,349.47269,449.68751,338.88279,439.42581Zm91.416,139.666c-12.1611,0-27.1035-3.8291-33.0107-6.9609v-22.626c7.2978,5.5703,21.54391,12.1826,31.2744,12.1826,5.9063,0,13.8984-2.43551,13.8984-6.9609s-3.4746-6.962-10.4238-8.7022c-6.9502-1.7402-12.8564-1.3926-20.8496-5.2207-7.9922-3.8291-15.6367-6.6142-15.6367-22.626,0-16.01071,12.1621-26.1054,36.4863-26.1054,12.8565,0,26.7568,3.4804,29.5361,5.22069v22.62591c-5.5595-4.1777-15.289-10.4433-27.7988-10.4433s-13.89939,4.1777-13.89939,6.9619c0,2.7852,1.73729,3.4814,5.21189,5.2207,3.4756,1.7412,11.8145,1.7412,22.5869,5.2217,10.7725,3.4814,19.1123,8.70209,19.1123,24.3652C466.78609,568.64941,452.53909,579.09181,430.29879,579.09181Zm59.6084-60.082a12.39655,12.39655,0,1,1,3.6201-8.7549A11.96291,11.96291,0,0,1,489.90719,519.00981Z" transform="translate(-31.4639 -24.77152)"/><path class="cls-1" d="M481.14059,499.39161a10.82288,10.82288,0,1,0,7.6739,3.1709A10.48568,10.48568,0,0,0,481.14059,499.39161Zm3.2071,18.5635-1.6485-3.7735a7.0739,7.0739,0,0,0-1.28319-2.0625,1.984,1.984,0,0,0-1.42091-.6875h-1.4189v6.5235h-2.3369v-15.6748h4.5195a7.007,7.007,0,0,1,4.2461,1.1299,3.70962,3.70962,0,0,1,1.5273,3.163,3.91368,3.91368,0,0,1-1.039,2.75,5.24668,5.24668,0,0,1-2.917,1.5127,2.89594,2.89594,0,0,1,1.3144.9092,8.39614,8.39614,0,0,1,1.2666,2.0098l2.0313,4.2002Z" transform="translate(-31.4639 -24.77152)"/><path class="cls-1" d="M471.27249,24.77152H141.6553A110.19149,110.19149,0,0,0,31.4639,134.96292V658.1348A110.19118,110.19118,0,0,0,141.6553,768.3262H471.27249a110.19093,110.19093,0,0,0,110.1914-110.1914V134.96292A110.19123,110.19123,0,0,0,471.27249,24.77152Zm82.4043,612.06538c0,56.5527-36.71879,100.8272-92.0909,100.8272H152.3003c-55.3726,0-92.0908-44.2745-92.0908-100.8272V155.30222c0-56.5537,36.7182-100.8271,92.0908-100.8271H461.58589c55.37211,0,92.0909,44.2734,92.0909,100.8271Z" transform="translate(-31.4639 -24.77152)"/><path d="M461.58589,54.47512H152.3003c-55.3726,0-92.0908,44.2734-92.0908,100.8271V636.8369c0,56.5527,36.7182,100.8272,92.0908,100.8272H461.58589c55.37211,0,92.0909-44.2745,92.0909-100.8272V155.30222C553.67679,98.74852,516.958,54.47512,461.58589,54.47512ZM201.29929,698.376c-14.248,0-20.85059-9.0391-22.58789-19.1221l10.4253-2.4336c2.085,7.9961,7.2974,11.4727,13.20509,11.4727s10.0781-2.4336,10.0781-9.0391c0-6.6064-8.3408-9.04-16.33349-11.4736a20.7574,20.7574,0,0,1-14.5952-19.8174c0-11.4736,7.9927-18.0801,20.1558-18.0801,14.248,0,19.46039,8.3447,20.85059,16.6895l-9.3829,3.1289c-1.7373-6.2588-5.56-10.4307-11.8154-10.4307s-8.34029,3.8252-8.34029,8.3447,3.1274,7.3008,12.51019,10.4307c9.3829,3.1279,19.11381,7.3008,19.11381,19.8174C224.583,688.6416,217.28519,698.376,201.29929,698.376Zm46.5669-.6953h-12.1631V631.6221h12.1631Zm48.6514,0h-36.4888V631.6221h12.1631V687.25h24.3257Zm26.0635,0H310.418l-17.37551-66.0586h12.1631l11.4673,49.0224,11.121-49.0224H339.957Zm64.29-55.6289h-27.8018v15.6455h20.8516v10.4306h-20.8516V687.25h27.8018v10.4307h-39.9648V631.6221h39.9648Zm38.2266,55.6289-10.4268-27.8145h-8.6865v27.8145h-12.1641V631.6221h24.3272c11.8144,0,17.3759,6.6054,17.3759,18.0791,0,11.4726-5.5615,15.6455-9.0361,17.7314L438.998,697.6807Zm95.5654-100.8262H93.2227V165.73192c0-50.6528,19.8022-74.7505,67.7656-74.7505H452.89839c47.9629,0,67.7647,24.0977,67.7647,74.7505Z" transform="translate(-31.4639 -24.77152)"/><path d="M138.3623,363.63231c0,62.4673,25.2671,92.521,75.64889,93.32769h2.1963c50.3814-.80669,75.7578-30.86039,75.7578-93.32769,0-63.3315-23.6318-73.0742-33.0151-78.9902,8.6885-8.35111,28.4971-22.2705,28.4971-65.419,0-48.101-16.6285-85.21139-71.2398-86.14449h-2.0874c-54.61179.9331-71.24019,38.0435-71.24019,86.14449,0,43.1485,19.8086,57.06789,28.4966,65.419C161.9937,290.55811,138.3623,300.30081,138.3623,363.63231ZM215.16359,175.415c15.2915.37462,23.2827,9.08012,23.2827,42.41611,0,31.0307-6.0366,44.3168-23.2827,44.8383-17.24659-.5215-23.28319-13.8076-23.28319-44.8383C191.8804,184.49512,199.87159,175.78962,215.16359,175.415Zm0,133.61481c21.751.6123,28.4961,20.3257,28.4961,52.8628,0,35.875-9.4053,51.9179-28.4961,52.4892-19.09039-.5713-28.49559-16.6142-28.49559-52.4892C186.668,329.35551,193.4126,309.64211,215.16359,309.02981Z" transform="translate(-31.4639 -24.77152)"/><polygon points="228.566 469.041 204.241 469.041 204.241 552.58 265.052 552.58 265.052 533.435 228.566 533.435 228.566 469.041"/><path d="M190.5317,493.81251H154.0454v83.5391h24.3242v-27.8467h12.1621c22.21979,0,31.274-12.1817,31.274-31.3272C221.80569,502.66021,209.29589,493.81251,190.5317,493.81251Zm-6.9497,38.2881h-5.2124v-20.8838h5.2124c10.4478,0,13.5323,1.8457,13.8667,10.4414C197.1143,530.25491,194.0298,532.10061,183.582,532.10061Z" transform="translate(-31.4639 -24.77152)"/><path d="M451.11719,439.42581c10.7734-10.4395,20.5029-30.6221,20.5029-60.2002v-168.354c0-29.57769-9.7295-49.76029-20.5029-60.19969-10.5899-10.2617-21.53319-17.3731-55.24019-17.605h-1.754c-33.707.2319-44.65031,7.3433-55.24021,17.605-10.7724,10.4394-20.5039,30.622-20.5039,60.19969v168.354c0,29.5781,9.7315,49.7607,20.5039,60.2002,10.5899,10.2617,21.53321,17.2646,55.24021,17.4951h1.754C429.584,456.69041,440.52729,449.68751,451.11719,439.42581Zm-81.3047-52.5445v-183.665c0-20.09519,11.6582-27.83449,25.18751-28.15531,13.52929.32082,25.18749,8.06012,25.18749,28.15531v183.665c0,20.0943-11.6582,27.8355-25.18749,28.1548C381.47069,414.71681,369.81249,406.97561,369.81249,386.88131Z" transform="translate(-31.4639 -24.77152)"/><path d="M481.15719,497.89451a12.335,12.335,0,1,0,8.75,3.60549A12.00176,12.00176,0,0,0,481.15719,497.89451Zm7.6651,20.0459a10.92215,10.92215,0,1,1,3.1611-7.6855A10.45465,10.45465,0,0,1,488.82229,517.94041Z" transform="translate(-31.4639 -24.77152)"/><path d="M447.67379,526.87991c-10.7724-3.4805-19.1113-3.4805-22.5869-5.2217-3.4746-1.7393-5.21189-2.4355-5.21189-5.2207,0-2.7842,1.38959-6.9619,13.89939-6.9619s22.2393,6.2656,27.7988,10.4433V497.293c-2.7793-1.74029-16.6796-5.22069-29.5361-5.22069-24.3242,0-36.4863,10.09469-36.4863,26.1054,0,16.0118,7.6445,18.7969,15.6367,22.626,7.9932,3.8281,13.8994,3.4805,20.8496,5.2207,6.9492,1.7402,10.4238,4.1768,10.4238,8.7022s-7.9921,6.9609-13.8984,6.9609c-9.73049,0-23.9766-6.6123-31.2744-12.1826v22.626c5.9072,3.1318,20.8496,6.9609,33.0107,6.9609,22.2403,0,36.4873-10.4424,36.4873-27.8467C466.78609,535.582,458.44629,530.36131,447.67379,526.87991Z" transform="translate(-31.4639 -24.77152)"/><path d="M483.89059,511.74511a2.89594,2.89594,0,0,0-1.3144-.9092,5.24668,5.24668,0,0,0,2.917-1.5127,3.91368,3.91368,0,0,0,1.039-2.75,3.70962,3.70962,0,0,0-1.5273-3.163,7.007,7.007,0,0,0-4.2461-1.1299h-4.5195v15.6748h2.3369v-6.5235h1.4189a1.984,1.984,0,0,1,1.42091.6875,7.0739,7.0739,0,0,1,1.28319,2.0625l1.6485,3.7735h2.8408l-2.0313-4.2002A8.39614,8.39614,0,0,0,483.89059,511.74511Zm-3.0088-2.2695h-2.3056v-5.21h1.9092a4.719,4.719,0,0,1,2.6787.5967,2.25494,2.25494,0,0,1,.8476,1.9854,2.42025,2.42025,0,0,1-.7861,1.9707A3.58062,3.58062,0,0,1,480.88179,509.47561Z" transform="translate(-31.4639 -24.77152)"/><path d="M357.32619,546.02441c0,9.6035-3.543,14.7793-13.0303,15.5498-9.4873-.7705-13.0313-5.9463-13.0313-15.5498v-52.2119h-24.3232v52.2119c0,21.1377,10.9268,31.6358,34.749,32.9258h5.2119c23.8213-1.29,34.7481-11.7881,34.7481-32.9258v-52.2119h-24.3242Z" transform="translate(-31.4639 -24.77152)"/><path class="cls-2" d="M435.52339,649.7012c0-11.4737-5.5615-18.0791-17.3759-18.0791h-24.3272v66.0586h12.1641V669.8662h8.6865l10.4268,27.8145H438.998l-12.51071-30.2481C429.96189,665.3467,435.52339,661.1738,435.52339,649.7012Zm-20.8525,9.7353h-8.6865V642.0518h8.6865c5.2139,0,10.4268,3.4765,10.4268,8.6923C425.09769,656.3066,419.53709,659.4365,414.67089,659.4365Z" transform="translate(-31.4639 -24.77152)"/><polygon class="cls-2" points="315.442 672.909 355.407 672.909 355.407 662.478 327.605 662.478 327.605 643.356 348.457 643.356 348.457 632.926 327.605 632.926 327.605 617.28 355.407 617.28 355.407 606.851 315.442 606.851 315.442 672.909"/><polygon class="cls-2" points="285.209 655.873 273.742 606.851 261.579 606.851 278.954 672.909 291.117 672.909 308.493 606.851 296.33 606.851 285.209 655.873"/><polygon class="cls-2" points="240.728 606.851 228.565 606.851 228.565 672.909 265.054 672.909 265.054 662.478 240.728 662.478 240.728 606.851"/><rect class="cls-2" x="204.23919" y="606.85058" width="12.1631" height="66.0586"/><path class="cls-2" d="M205.46919,658.0459c-9.38279-3.1299-12.51019-5.9111-12.51019-10.4307s2.0849-8.3447,8.34029-8.3447,10.0781,4.1719,11.8154,10.4307l9.3829-3.1289c-1.3902-8.3448-6.60259-16.6895-20.85059-16.6895-12.1631,0-20.1558,6.6065-20.1558,18.0801a20.7574,20.7574,0,0,0,14.5952,19.8174c7.99269,2.4336,16.33349,4.8672,16.33349,11.4736,0,6.6055-4.1704,9.0391-10.0781,9.0391s-11.12009-3.4766-13.20509-11.4727l-10.4253,2.4336c1.7373,10.083,8.3399,19.1221,22.58789,19.1221,15.9859,0,23.28371-9.7344,23.28371-20.5127C224.583,665.3467,214.85209,661.1738,205.46919,658.0459Z" transform="translate(-31.4639 -24.77152)"/><path d="M414.67089,642.0518h-8.6865v17.3847h8.6865c4.8662,0,10.4268-3.1299,10.4268-8.6924C425.09769,645.5283,419.88479,642.0518,414.67089,642.0518Z" transform="translate(-31.4639 -24.77152)"/></svg>