<?xml version="1.0" encoding="UTF-8"?>
<svg xmlns="http://www.w3.org/2000/svg" xmlns:xlink="http://www.w3.org/1999/xlink" width="550pt" height="743.56pt" viewBox="0 0 550 743.56" version="1.1">
<defs>
<clipPath id="clip1">
  <path d="M 0 0 L 550 0 L 550 743.558594 L 0 743.558594 Z M 0 0 "/>
</clipPath>
</defs>
<g id="surface1">
<path style=" stroke:none;fill-rule:nonzero;fill:rgb(88.28125%,71.289063%,27.43988%);fill-opacity:1;" d="M 452.410156 482.714844 C 452.410156 481.785156 452.128906 481.125 451.5625 480.726563 C 450.996094 480.328125 450.101563 480.128906 448.878906 480.128906 L 446.964844 480.128906 L 446.964844 485.347656 L 449.277344 485.347656 C 450.316406 485.347656 451.101563 485.128906 451.625 484.691406 C 452.148438 484.253906 452.410156 483.59375 452.410156 482.714844 "/>
<path style=" stroke:none;fill-rule:nonzero;fill:rgb(88.28125%,71.289063%,27.43988%);fill-opacity:1;" d="M 151.398438 487.089844 L 146.175781 487.089844 L 146.175781 508.003906 L 151.398438 508.003906 C 161.867188 508.003906 164.957031 506.15625 165.292969 497.546875 C 164.957031 488.941406 161.867188 487.089844 151.398438 487.089844 "/>
<path style=" stroke:none;fill-rule:nonzero;fill:rgb(88.28125%,71.289063%,27.43988%);fill-opacity:1;" d="M 183.042969 238.195313 C 200.320313 237.671875 206.371094 224.367188 206.371094 193.292969 C 206.371094 159.910156 198.363281 151.195313 183.042969 150.820313 C 167.722656 151.195313 159.714844 159.910156 159.714844 193.292969 C 159.714844 224.367188 165.761719 237.671875 183.042969 238.195313 "/>
<path style=" stroke:none;fill-rule:nonzero;fill:rgb(88.28125%,71.289063%,27.43988%);fill-opacity:1;" d="M 183.042969 390.121094 C 202.171875 389.550781 211.59375 373.480469 211.59375 337.558594 C 211.59375 304.972656 204.835938 285.234375 183.042969 284.621094 C 161.25 285.234375 154.492188 304.972656 154.492188 337.558594 C 154.492188 373.480469 163.914063 389.550781 183.042969 390.121094 "/>
<path style=" stroke:none;fill-rule:nonzero;fill:rgb(88.28125%,71.289063%,27.43988%);fill-opacity:1;" d="M 388.464844 362.582031 L 388.464844 178.65625 C 388.464844 158.535156 376.785156 150.785156 363.230469 150.464844 C 349.671875 150.785156 337.992188 158.535156 337.992188 178.65625 L 337.992188 362.582031 C 337.992188 382.703125 349.671875 390.453125 363.230469 390.777344 C 376.785156 390.453125 388.464844 382.703125 388.464844 362.582031 "/>
<path style=" stroke:none;fill-rule:nonzero;fill:rgb(88.28125%,71.289063%,27.43988%);fill-opacity:1;" d="M 458.320313 494.894531 C 455.902344 497.300781 452.972656 498.507813 449.535156 498.507813 C 446.066406 498.507813 443.128906 497.300781 440.722656 494.894531 C 438.316406 492.488281 437.109375 489.566406 437.109375 486.128906 C 437.109375 482.691406 438.320313 479.769531 440.738281 477.363281 C 443.15625 474.953125 446.09375 473.75 449.550781 473.75 C 452.976563 473.75 455.902344 474.953125 458.320313 477.363281 C 460.738281 479.769531 461.945313 482.691406 461.945313 486.128906 C 461.945313 489.566406 460.738281 492.488281 458.320313 494.894531 M 398.59375 555.0625 C 386.410156 555.0625 371.4375 551.226563 365.519531 548.089844 L 365.519531 525.433594 C 372.832031 531.011719 387.105469 537.632813 396.855469 537.632813 C 402.773438 537.632813 410.78125 535.191406 410.78125 530.660156 C 410.78125 526.128906 407.300781 523.691406 400.335938 521.949219 C 393.375 520.203125 387.453125 520.554688 379.445313 516.71875 C 371.4375 512.886719 363.777344 510.097656 363.777344 494.0625 C 363.777344 478.027344 375.964844 467.917969 400.335938 467.917969 C 413.21875 467.917969 427.144531 471.40625 429.929688 473.148438 L 429.929688 495.804688 C 424.359375 491.621094 414.609375 485.347656 402.078125 485.347656 C 389.542969 485.347656 388.148438 489.53125 388.148438 492.320313 C 388.148438 495.109375 389.890625 495.804688 393.375 497.546875 C 396.855469 499.289063 405.210938 499.289063 416.003906 502.777344 C 426.796875 506.261719 435.152344 511.492188 435.152344 527.175781 C 435.152344 544.605469 420.878906 555.0625 398.59375 555.0625 M 307.003906 415.199219 C 296.207031 404.746094 286.460938 384.535156 286.460938 354.914063 L 286.460938 186.324219 C 286.460938 156.707031 296.207031 136.496094 307.003906 126.039063 C 317.613281 115.765625 328.574219 108.644531 362.347656 108.410156 L 364.105469 108.410156 C 397.878906 108.644531 408.84375 115.765625 419.453125 126.039063 C 430.246094 136.496094 439.996094 156.707031 439.996094 186.324219 L 439.996094 354.914063 C 439.996094 384.535156 430.246094 404.746094 419.453125 415.199219 C 408.84375 425.476563 397.878906 432.488281 364.105469 432.71875 L 362.347656 432.71875 C 328.574219 432.488281 317.613281 425.476563 307.003906 415.199219 M 349.851563 521.949219 C 349.851563 543.113281 338.902344 553.628906 315.035156 554.917969 L 309.8125 554.917969 C 285.945313 553.628906 274.996094 543.113281 274.996094 521.949219 L 274.996094 469.664063 L 299.367188 469.664063 L 299.367188 521.949219 C 299.367188 531.566406 302.921875 536.746094 312.425781 537.519531 C 321.929688 536.746094 325.480469 531.566406 325.480469 521.949219 L 325.480469 469.664063 L 349.851563 469.664063 Z M 264.550781 553.320313 L 203.625 553.320313 L 203.625 469.664063 L 227.996094 469.664063 L 227.996094 534.148438 L 264.550781 534.148438 Z M 158.363281 525.433594 L 146.175781 525.433594 L 146.175781 553.320313 L 121.804688 553.320313 L 121.804688 469.664063 L 158.363281 469.664063 C 177.164063 469.664063 189.695313 478.523438 189.695313 494.0625 C 189.695313 513.234375 180.625 525.433594 158.363281 525.433594 M 110.617188 194.6875 C 110.617188 146.519531 127.277344 109.355469 181.996094 108.421875 L 184.089844 108.421875 C 238.804688 109.355469 255.464844 146.519531 255.464844 194.6875 C 255.464844 237.898438 235.617188 251.835938 226.914063 260.199219 C 236.316406 266.121094 259.992188 275.878906 259.992188 339.300781 C 259.992188 401.855469 234.566406 431.949219 184.089844 432.757813 L 181.886719 432.757813 C 131.40625 431.949219 106.089844 401.855469 106.089844 339.300781 C 106.089844 275.878906 129.769531 266.121094 139.171875 260.199219 C 130.464844 251.835938 110.617188 237.898438 110.617188 194.6875 M 421.238281 66.265625 L 128.761719 66.265625 C 80.707031 66.265625 60.863281 90.398438 60.863281 141.121094 L 60.863281 572.847656 L 489.136719 572.847656 L 489.136719 141.121094 C 489.136719 90.398438 469.292969 66.265625 421.238281 66.265625 "/>
<path style=" stroke:none;fill-rule:nonzero;fill:rgb(88.28125%,71.289063%,27.43988%);fill-opacity:1;" d="M 452.75 493.839844 L 451.097656 490.0625 C 450.6875 489.144531 450.261719 488.453125 449.8125 487.992188 C 449.363281 487.535156 448.886719 487.304688 448.390625 487.304688 L 446.964844 487.304688 L 446.964844 493.839844 L 444.625 493.839844 L 444.625 478.140625 L 449.152344 478.140625 C 450.96875 478.140625 452.386719 478.519531 453.40625 479.273438 C 454.429688 480.027344 454.9375 481.085938 454.9375 482.441406 C 454.9375 483.523438 454.589844 484.441406 453.894531 485.195313 C 453.203125 485.949219 452.230469 486.453125 450.976563 486.710938 C 451.414063 486.832031 451.851563 487.136719 452.289063 487.621094 C 452.726563 488.105469 453.152344 488.773438 453.5625 489.632813 L 455.597656 493.839844 Z M 449.535156 475.25 C 446.527344 475.25 443.960938 476.304688 441.839844 478.417969 C 439.71875 480.527344 438.65625 483.097656 438.65625 486.128906 C 438.65625 489.15625 439.71875 491.726563 441.839844 493.832031 C 443.960938 495.9375 446.527344 496.992188 449.535156 496.992188 C 452.554688 496.992188 455.121094 495.9375 457.234375 493.824219 C 459.34375 491.710938 460.398438 489.148438 460.398438 486.128906 C 460.398438 483.109375 459.34375 480.539063 457.226563 478.425781 C 455.109375 476.308594 452.546875 475.25 449.535156 475.25 "/>
<g clip-path="url(#clip1)" clip-rule="nonzero">
<path style=" stroke:none;fill-rule:nonzero;fill:rgb(88.28125%,71.289063%,27.43988%);fill-opacity:1;" d="M 522.214844 612.886719 C 522.214844 669.519531 485.421875 713.855469 429.941406 713.855469 L 120.058594 713.855469 C 64.578125 713.855469 27.785156 669.519531 27.785156 612.886719 L 27.785156 130.675781 C 27.785156 74.046875 64.578125 29.710938 120.058594 29.710938 L 429.941406 29.710938 C 485.421875 29.710938 522.214844 74.046875 522.214844 130.675781 Z M 439.808594 0.00390625 L 110.191406 0.00390625 C 49.335938 0.00390625 0 49.339844 0 110.195313 L 0 633.367188 C 0 694.226563 49.335938 743.558594 110.191406 743.558594 L 439.808594 743.558594 C 500.664063 743.558594 550 694.226563 550 633.367188 L 550 110.195313 C 550 49.339844 500.664063 0.00390625 439.808594 0.00390625 "/>
</g>
<path style=" stroke:none;fill-rule:nonzero;fill:rgb(0%,0%,0%);fill-opacity:1;" d="M 457.234375 493.824219 C 455.121094 495.9375 452.554688 496.992188 449.539063 496.992188 C 446.527344 496.992188 443.964844 495.9375 441.839844 493.832031 C 439.71875 491.726563 438.65625 489.15625 438.65625 486.128906 C 438.65625 483.097656 439.71875 480.527344 441.839844 478.417969 C 443.964844 476.304688 446.527344 475.25 449.539063 475.25 C 452.546875 475.25 455.109375 476.308594 457.226563 478.425781 C 459.339844 480.542969 460.398438 483.109375 460.398438 486.128906 C 460.398438 489.148438 459.34375 491.714844 457.234375 493.824219 M 449.550781 473.75 C 446.09375 473.75 443.15625 474.953125 440.738281 477.363281 C 438.320313 479.765625 437.109375 482.691406 437.109375 486.128906 C 437.109375 489.566406 438.316406 492.488281 440.722656 494.894531 C 443.128906 497.304688 446.066406 498.507813 449.539063 498.507813 C 452.972656 498.507813 455.902344 497.304688 458.320313 494.894531 C 460.738281 492.488281 461.945313 489.566406 461.945313 486.128906 C 461.945313 482.691406 460.738281 479.765625 458.320313 477.363281 C 455.902344 474.953125 452.980469 473.75 449.550781 473.75 "/>
<path style=" stroke:none;fill-rule:nonzero;fill:rgb(0%,0%,0%);fill-opacity:1;" d="M 227.996094 469.664063 L 203.621094 469.664063 L 203.621094 553.320313 L 264.554688 553.320313 L 264.554688 534.148438 L 227.996094 534.148438 "/>
<path style=" stroke:none;fill-rule:nonzero;fill:rgb(0%,0%,0%);fill-opacity:1;" d="M 183.042969 284.621094 C 204.835938 285.234375 211.59375 304.972656 211.59375 337.558594 C 211.59375 373.480469 202.171875 389.550781 183.042969 390.121094 C 163.914063 389.550781 154.492188 373.480469 154.492188 337.558594 C 154.492188 304.972656 161.25 285.234375 183.042969 284.621094 M 183.042969 150.820313 C 198.363281 151.195313 206.371094 159.910156 206.371094 193.292969 C 206.371094 224.367188 200.320313 237.671875 183.042969 238.195313 C 165.761719 237.671875 159.714844 224.367188 159.714844 193.292969 C 159.714844 159.910156 167.722656 151.195313 183.042969 150.820313 M 106.089844 339.300781 C 106.089844 401.851563 131.40625 431.949219 181.886719 432.757813 L 184.089844 432.757813 C 234.566406 431.949219 259.992188 401.851563 259.992188 339.300781 C 259.992188 275.878906 236.316406 266.121094 226.914063 260.199219 C 235.617188 251.835938 255.464844 237.898438 255.464844 194.6875 C 255.464844 146.519531 238.804688 109.359375 184.089844 108.421875 L 181.996094 108.421875 C 127.277344 109.359375 110.617188 146.519531 110.617188 194.6875 C 110.617188 237.898438 130.464844 251.835938 139.171875 260.199219 C 129.769531 266.121094 106.089844 275.878906 106.089844 339.300781 "/>
<path style=" stroke:none;fill-rule:nonzero;fill:rgb(0%,0%,0%);fill-opacity:1;" d="M 151.398438 508.003906 L 146.175781 508.003906 L 146.175781 487.089844 L 151.398438 487.089844 C 161.867188 487.089844 164.957031 488.941406 165.292969 497.546875 C 164.957031 506.15625 161.867188 508.003906 151.398438 508.003906 M 158.363281 469.664063 L 121.804688 469.664063 L 121.804688 553.316406 L 146.175781 553.316406 L 146.175781 525.433594 L 158.363281 525.433594 C 180.625 525.433594 189.695313 513.234375 189.695313 494.0625 C 189.695313 478.523438 177.164063 469.664063 158.363281 469.664063 "/>
<path style=" stroke:none;fill-rule:nonzero;fill:rgb(0%,0%,0%);fill-opacity:1;" d="M 325.480469 521.945313 C 325.480469 531.566406 321.929688 536.746094 312.425781 537.519531 C 302.921875 536.746094 299.371094 531.566406 299.371094 521.945313 L 299.371094 469.664063 L 274.996094 469.664063 L 274.996094 521.945313 C 274.996094 543.113281 285.945313 553.628906 309.8125 554.921875 L 315.035156 554.921875 C 338.902344 553.628906 349.851563 543.113281 349.851563 521.945313 L 349.851563 469.664063 L 325.480469 469.664063 "/>
<path style=" stroke:none;fill-rule:nonzero;fill:rgb(0%,0%,0%);fill-opacity:1;" d="M 337.992188 362.582031 L 337.992188 178.65625 C 337.992188 158.535156 349.671875 150.785156 363.226563 150.464844 C 376.785156 150.785156 388.464844 158.535156 388.464844 178.65625 L 388.464844 362.582031 C 388.464844 382.703125 376.785156 390.453125 363.226563 390.777344 C 349.671875 390.453125 337.992188 382.703125 337.992188 362.582031 M 419.453125 415.199219 C 430.246094 404.746094 439.996094 384.535156 439.996094 354.914063 L 439.996094 186.324219 C 439.996094 156.703125 430.246094 136.496094 419.453125 126.039063 C 408.84375 115.765625 397.878906 108.644531 364.105469 108.410156 L 362.347656 108.410156 C 328.574219 108.644531 317.613281 115.765625 307.003906 126.039063 C 296.207031 136.496094 286.460938 156.703125 286.460938 186.324219 L 286.460938 354.914063 C 286.460938 384.535156 296.207031 404.746094 307.003906 415.199219 C 317.613281 425.476563 328.574219 432.488281 362.347656 432.71875 L 364.105469 432.71875 C 397.878906 432.488281 408.84375 425.476563 419.453125 415.199219 "/>
<path style=" stroke:none;fill-rule:nonzero;fill:rgb(0%,0%,0%);fill-opacity:1;" d="M 489.136719 572.847656 L 60.863281 572.847656 L 60.863281 141.121094 C 60.863281 90.398438 80.703125 66.265625 128.761719 66.265625 L 421.238281 66.265625 C 469.292969 66.265625 489.136719 90.398438 489.136719 141.121094 Z M 352.449219 674.195313 L 333.859375 674.195313 L 333.859375 607.265625 L 351.207031 607.265625 C 366.820313 607.265625 379.460938 616.191406 379.460938 639.246094 C 379.460938 662.296875 367.070313 674.195313 352.449219 674.195313 M 326.425781 674.195313 L 291.730469 674.195313 L 291.730469 607.265625 L 304.121094 607.265625 L 304.121094 663.039063 L 326.425781 663.039063 Z M 255.546875 674.441406 C 238.941406 674.441406 232.25 660.3125 232.25 639.738281 C 232.25 619.164063 238.195313 606.277344 256.535156 606.277344 C 273.390625 606.277344 279.335938 619.414063 279.335938 638.996094 C 279.335938 662.792969 272.148438 674.441406 255.546875 674.441406 M 199.78125 665.023438 C 209.945313 665.023438 211.183594 653.125 211.183594 648.167969 L 198.792969 648.167969 L 198.792969 639.492188 L 221.097656 639.492188 L 221.097656 674.195313 L 214.902344 674.195313 L 213.414063 666.261719 C 210.9375 670.972656 207.714844 674.441406 197.554688 674.441406 C 182.929688 674.441406 175.246094 660.808594 175.246094 640.234375 C 175.246094 619.660156 182.433594 606.277344 199.78125 606.277344 C 217.132813 606.277344 220.351563 620.15625 221.34375 626.851563 L 211.679688 629.328125 C 210.9375 625.363281 208.953125 615.449219 199.535156 615.449219 C 190.117188 615.449219 186.398438 624.371094 186.398438 639.988281 C 186.398438 655.605469 189.621094 665.023438 199.78125 665.023438 M 429.941406 29.710938 L 120.058594 29.710938 C 64.578125 29.710938 27.785156 74.046875 27.785156 130.675781 L 27.785156 612.886719 C 27.785156 669.519531 64.578125 713.855469 120.058594 713.855469 L 429.941406 713.855469 C 485.421875 713.855469 522.214844 669.519531 522.214844 612.886719 L 522.214844 130.675781 C 522.214844 74.046875 485.421875 29.710938 429.941406 29.710938 "/>
<path style=" stroke:none;fill-rule:nonzero;fill:rgb(0%,0%,0%);fill-opacity:1;" d="M 449.277344 485.347656 L 446.964844 485.347656 L 446.964844 480.128906 L 448.878906 480.128906 C 450.101563 480.128906 450.996094 480.328125 451.5625 480.726563 C 452.128906 481.125 452.414063 481.785156 452.414063 482.714844 C 452.414063 483.59375 452.148438 484.253906 451.625 484.691406 C 451.097656 485.128906 450.316406 485.347656 449.277344 485.347656 M 452.289063 487.621094 C 451.851563 487.136719 451.414063 486.832031 450.976563 486.710938 C 452.230469 486.453125 453.203125 485.949219 453.894531 485.195313 C 454.589844 484.441406 454.9375 483.523438 454.9375 482.441406 C 454.9375 481.085938 454.425781 480.027344 453.40625 479.273438 C 452.386719 478.519531 450.96875 478.140625 449.152344 478.140625 L 444.625 478.140625 L 444.625 493.839844 L 446.964844 493.839844 L 446.964844 487.304688 L 448.386719 487.304688 C 448.886719 487.304688 449.363281 487.535156 449.8125 487.992188 C 450.257813 488.453125 450.6875 489.144531 451.097656 490.0625 L 452.75 493.839844 L 455.59375 493.839844 L 453.558594 489.632813 C 453.152344 488.773438 452.726563 488.105469 452.289063 487.621094 "/>
<path style=" stroke:none;fill-rule:nonzero;fill:rgb(0%,0%,0%);fill-opacity:1;" d="M 416.003906 502.777344 C 405.210938 499.292969 396.855469 499.292969 393.375 497.546875 C 389.894531 495.804688 388.148438 495.109375 388.148438 492.320313 C 388.148438 489.53125 389.542969 485.347656 402.078125 485.347656 C 414.609375 485.347656 424.359375 491.621094 429.929688 495.804688 L 429.929688 473.148438 C 427.144531 471.40625 413.21875 467.921875 400.335938 467.921875 C 375.964844 467.921875 363.777344 478.027344 363.777344 494.0625 C 363.777344 510.097656 371.441406 512.886719 379.445313 516.71875 C 387.453125 520.554688 393.375 520.203125 400.335938 521.949219 C 407.300781 523.691406 410.78125 526.128906 410.78125 530.660156 C 410.78125 535.191406 402.773438 537.632813 396.855469 537.632813 C 387.105469 537.632813 372.832031 531.011719 365.519531 525.433594 L 365.519531 548.089844 C 371.441406 551.226563 386.410156 555.0625 398.597656 555.0625 C 420.878906 555.0625 435.152344 544.605469 435.152344 527.175781 C 435.152344 511.492188 426.796875 506.261719 416.003906 502.777344 "/>
<path style=" stroke:none;fill-rule:nonzero;fill:rgb(100%,100%,100%);fill-opacity:1;" d="M 199.535156 615.445313 C 208.953125 615.445313 210.933594 625.363281 211.679688 629.328125 L 221.34375 626.851563 C 220.351563 620.15625 217.132813 606.277344 199.78125 606.277344 C 182.433594 606.277344 175.246094 619.660156 175.246094 640.234375 C 175.246094 660.808594 182.929688 674.441406 197.550781 674.441406 C 207.714844 674.441406 210.933594 670.972656 213.414063 666.261719 L 214.902344 674.195313 L 221.097656 674.195313 L 221.097656 639.492188 L 198.789063 639.492188 L 198.789063 648.167969 L 211.183594 648.167969 C 211.183594 653.125 209.945313 665.023438 199.78125 665.023438 C 189.621094 665.023438 186.398438 655.605469 186.398438 639.988281 C 186.398438 624.371094 190.117188 615.445313 199.535156 615.445313 "/>
<path style=" stroke:none;fill-rule:nonzero;fill:rgb(100%,100%,100%);fill-opacity:1;" d="M 256.039063 665.519531 C 246.871094 665.519531 243.152344 657.339844 243.152344 639.246094 C 243.152344 621.148438 248.855469 615.199219 255.792969 615.199219 C 262.730469 615.199219 268.183594 620.902344 268.183594 638.253906 C 268.183594 655.605469 265.210938 665.519531 256.039063 665.519531 M 256.535156 606.277344 C 238.195313 606.277344 232.246094 619.164063 232.246094 639.738281 C 232.246094 660.3125 238.941406 674.441406 255.546875 674.441406 C 272.148438 674.441406 279.335938 662.792969 279.335938 638.996094 C 279.335938 619.414063 273.390625 606.277344 256.535156 606.277344 "/>
<path style=" stroke:none;fill-rule:nonzero;fill:rgb(0%,0%,0%);fill-opacity:1;" d="M 255.792969 615.199219 C 248.855469 615.199219 243.152344 621.148438 243.152344 639.246094 C 243.152344 657.339844 246.871094 665.519531 256.039063 665.519531 C 265.210938 665.519531 268.183594 655.605469 268.183594 638.253906 C 268.183594 620.902344 262.730469 615.199219 255.792969 615.199219 "/>
<path style=" stroke:none;fill-rule:nonzero;fill:rgb(100%,100%,100%);fill-opacity:1;" d="M 304.121094 607.265625 L 291.726563 607.265625 L 291.726563 674.195313 L 326.425781 674.195313 L 326.425781 663.039063 L 304.121094 663.039063 "/>
<path style=" stroke:none;fill-rule:nonzero;fill:rgb(100%,100%,100%);fill-opacity:1;" d="M 352.449219 664.28125 L 346.253906 664.28125 L 346.253906 617.183594 L 352.449219 617.183594 C 361.367188 617.183594 367.8125 624.125 367.8125 640.234375 C 367.8125 656.347656 361.121094 664.28125 352.449219 664.28125 M 351.207031 607.265625 L 333.859375 607.265625 L 333.859375 674.195313 L 352.449219 674.195313 C 367.070313 674.195313 379.460938 662.296875 379.460938 639.246094 C 379.460938 616.191406 366.820313 607.265625 351.207031 607.265625 "/>
<path style=" stroke:none;fill-rule:nonzero;fill:rgb(0%,0%,0%);fill-opacity:1;" d="M 352.449219 617.183594 L 346.253906 617.183594 L 346.253906 664.28125 L 352.449219 664.28125 C 361.121094 664.28125 367.8125 656.347656 367.8125 640.234375 C 367.8125 624.121094 361.367188 617.183594 352.449219 617.183594 "/>
</g>
</svg>
